<svg width="12" height="52" viewBox="0 0 12 52" fill="none" xmlns="http://www.w3.org/2000/svg">
<line x1="6.5" y1="13" x2="6.5" y2="39" stroke="#5B20B6" stroke-dasharray="2 2"/>
<path d="M10.3104 4.35C9.79037 2.035 7.77036 1 6.00036 1C6.00036 1 6.00036 1 5.99536 1C4.23036 1 2.21536 2.035 1.69036 4.345C1.10036 6.925 2.68036 9.11 4.11036 10.49C4.64036 11 5.32036 11.255 6.00036 11.255C6.68036 11.255 7.36036 11 7.88536 10.49C9.31536 9.11 10.8954 6.93 10.3104 4.35ZM7.64036 4.765L5.64036 6.765C5.56536 6.84 5.47036 6.875 5.37536 6.875C5.28036 6.875 5.18536 6.84 5.11036 6.765L4.36036 6.015C4.21536 5.87 4.21536 5.63 4.36036 5.485C4.50536 5.34 4.74536 5.34 4.89036 5.485L5.37536 5.97L7.11036 4.235C7.25536 4.09 7.49536 4.09 7.64036 4.235C7.78536 4.38 7.78536 4.62 7.64036 4.765Z" fill="#5B20B6"/>
<path d="M10.3104 44.35C9.79037 42.035 7.77036 41 6.00036 41C6.00036 41 6.00036 41 5.99536 41C4.23036 41 2.21536 42.035 1.69036 44.345C1.10036 46.925 2.68036 49.11 4.11036 50.49C4.64036 51 5.32036 51.255 6.00036 51.255C6.68036 51.255 7.36036 51 7.88536 50.49C9.31536 49.11 10.8954 46.93 10.3104 44.35ZM7.64036 44.765L5.64036 46.765C5.56536 46.84 5.47036 46.875 5.37536 46.875C5.28036 46.875 5.18536 46.84 5.11036 46.765L4.36036 46.015C4.21536 45.87 4.21536 45.63 4.36036 45.485C4.50536 45.34 4.74536 45.34 4.89036 45.485L5.37536 45.97L7.11036 44.235C7.25536 44.09 7.49536 44.09 7.64036 44.235C7.78536 44.38 7.78536 44.62 7.64036 44.765Z" fill="#5B20B6"/>
</svg>
