<svg width="20" height="20" viewBox="0 0 20 20" fill="none" xmlns="http://www.w3.org/2000/svg">
<path d="M10.25 14.433L12.175 12.8247L10.25 11.083V14.433Z" fill="#5B20B6"/>
<path d="M10.25 5.56641V8.86641L12.175 7.09974L10.25 5.56641Z" fill="#5B20B6"/>
<path d="M13.4916 1.66699H6.50829C3.47496 1.66699 1.66663 3.47533 1.66663 6.50866V13.4837C1.66663 16.5253 3.47496 18.3337 6.50829 18.3337H13.4833C16.5166 18.3337 18.325 16.5253 18.325 13.492V6.50866C18.3333 3.47533 16.525 1.66699 13.4916 1.66699ZM4.37496 10.0003C4.37496 9.36699 4.89163 8.85032 5.52496 8.85032C6.15829 8.85032 6.66663 9.36699 6.66663 10.0003C6.66663 10.6337 6.14996 11.1503 5.51663 11.1503C4.88329 11.1503 4.37496 10.6337 4.37496 10.0003ZM12.975 13.7837L10.9666 15.4587C10.625 15.7503 10.3083 15.8337 10.0666 15.8337C9.87496 15.8337 9.72496 15.7837 9.64163 15.742C9.44996 15.6503 8.99996 15.3587 8.99996 14.542V11.717L6.58329 13.9253C6.33329 14.1587 5.93329 14.142 5.69996 13.8837C5.46663 13.6253 5.48329 13.2337 5.74163 13.0003L8.99996 10.017V9.95032L5.74163 7.00032C5.48329 6.76699 5.46663 6.37532 5.69996 6.11699C5.93329 5.86699 6.33329 5.84199 6.58329 6.07532L8.99996 8.28366V5.46699C8.99996 4.65033 9.44996 4.35032 9.64163 4.26699C9.83329 4.17532 10.35 4.02533 10.975 4.55033L12.9833 6.22532C13.2583 6.45032 13.4166 6.77532 13.425 7.11699C13.4333 7.45866 13.2916 7.79199 13.0333 8.03366L10.8666 10.0003L13.025 11.9753C13.2833 12.217 13.4333 12.5503 13.425 12.892C13.4083 13.2337 13.25 13.5587 12.975 13.7837ZM14.4833 11.1503C13.85 11.1503 13.3333 10.6337 13.3333 10.0003C13.3333 9.36699 13.85 8.85032 14.4833 8.85032C15.1166 8.85032 15.6333 9.36699 15.6333 10.0003C15.6333 10.6337 15.1083 11.1503 14.4833 11.1503Z" fill="#5B20B6"/>
</svg>
