<svg width="20" height="20" viewBox="0 0 20 20" fill="none" xmlns="http://www.w3.org/2000/svg">
<path d="M15.5917 7.90874C15.5084 7.90874 15.425 7.89208 15.3417 7.85874C15.025 7.71708 14.8834 7.35041 15.0167 7.03374C15.175 6.67541 15.0834 6.15041 14.7917 5.71708C14.5 5.27541 14.0584 4.97541 13.6584 5.00041C13.2917 5.00041 13.0334 4.72541 13.025 4.38374C13.025 4.03374 13.3 3.75874 13.6417 3.75041C14.5 3.73374 15.3084 4.22541 15.8334 5.01708C16.3667 5.81708 16.4917 6.77541 16.1667 7.52541C16.0667 7.76708 15.8334 7.90874 15.5917 7.90874Z" fill="#5B20B6"/>
<path d="M18.1834 8.73313C18.125 8.73313 18.075 8.7248 18.0167 8.70814C17.6834 8.61647 17.4917 8.2748 17.5834 7.94147C17.9 6.80813 17.6334 5.45813 16.875 4.3248C16.1167 3.19147 14.9667 2.43313 13.7917 2.29147C13.45 2.2498 13.2084 1.94147 13.25 1.5998C13.2917 1.25813 13.6084 1.00813 13.9417 1.05813C15.4667 1.24147 16.95 2.20813 17.9084 3.64147C18.8667 5.0748 19.1917 6.80814 18.7834 8.29147C18.7084 8.5498 18.4584 8.73313 18.1834 8.73313Z" fill="#5B20B6"/>
<path d="M14.2667 9.8168C14.2667 10.0668 14.0584 10.2751 13.8084 10.2751H2.85836C2.60836 10.2751 2.40002 10.0668 2.40002 9.8168C2.40002 9.5668 2.60836 9.35846 2.85836 9.35846H3.47502L3.70836 8.25846C3.92502 7.1918 4.38336 6.2168 6.20002 6.2168H10.475C12.2917 6.2168 12.7417 7.20013 12.9667 8.25846L13.2 9.35846H13.8167C14.0584 9.35846 14.2667 9.5668 14.2667 9.8168Z" fill="#5B20B6"/>
<path d="M14.525 13.2586C14.4334 12.2586 14.1667 11.1836 12.2167 11.1836H4.45004C2.50004 11.1836 2.23337 12.2586 2.14171 13.2586L1.80004 16.9669C1.75837 17.4253 1.90837 17.8919 2.22504 18.2419C2.55004 18.5919 3.00004 18.7919 3.49171 18.7919H4.63337C5.61671 18.7919 5.80837 18.2253 5.93337 17.8586L6.05837 17.4919C6.20004 17.0753 6.23337 16.9669 6.78337 16.9669H9.90004C10.45 16.9669 10.4667 17.0253 10.625 17.4919L10.75 17.8586C10.875 18.2336 11.0584 18.7919 12.05 18.7919H13.1917C13.675 18.7919 14.1334 18.5919 14.4584 18.2419C14.775 17.8919 14.925 17.4336 14.8834 16.9669L14.525 13.2586ZM6.50837 14.5253H4.68337C4.43337 14.5253 4.22504 14.3169 4.22504 14.0669C4.22504 13.8169 4.43337 13.6086 4.68337 13.6086H6.50837C6.75837 13.6086 6.96671 13.8169 6.96671 14.0669C6.96671 14.3169 6.75837 14.5253 6.50837 14.5253ZM11.9834 14.5253H10.1584C9.90837 14.5253 9.70004 14.3169 9.70004 14.0669C9.70004 13.8169 9.90837 13.6086 10.1584 13.6086H11.9834C12.2334 13.6086 12.4417 13.8169 12.4417 14.0669C12.4417 14.3169 12.2334 14.5253 11.9834 14.5253Z" fill="#5B20B6"/>
</svg>
