<svg width="107" height="107" viewBox="0 0 107 107" fill="none" xmlns="http://www.w3.org/2000/svg">
<circle cx="53.5" cy="53.5" r="45.5" fill="#5B20B6"/>
<circle cx="53.5" cy="53.5" r="53.5" fill="#5B20B6" fill-opacity="0.13"/>
<path d="M62.802 36.971V33.916C62.802 33.1131 62.1361 32.4473 61.3332 32.4473C60.5303 32.4473 59.8645 33.1131 59.8645 33.916V36.8535H47.1353V33.916C47.1353 33.1131 46.4695 32.4473 45.6665 32.4473C44.8636 32.4473 44.1978 33.1131 44.1978 33.916V36.971C38.9103 37.4606 36.3449 40.6135 35.9532 45.2939C35.914 45.8618 36.384 46.3318 36.9324 46.3318H70.0674C70.6353 46.3318 71.1053 45.8423 71.0465 45.2939C70.6549 40.6135 68.0895 37.4606 62.802 36.971Z" fill="white"/>
<path d="M67.2083 59.375C62.8804 59.375 59.375 62.8804 59.375 67.2083C59.375 68.6771 59.7862 70.0675 60.5108 71.2425C61.8621 73.5142 64.3492 75.0417 67.2083 75.0417C70.0675 75.0417 72.5546 73.5142 73.9058 71.2425C74.6304 70.0675 75.0417 68.6771 75.0417 67.2083C75.0417 62.8804 71.5363 59.375 67.2083 59.375ZM71.2621 66.3662L67.0908 70.2242C66.8167 70.4788 66.4446 70.6158 66.0921 70.6158C65.72 70.6158 65.3479 70.4788 65.0542 70.185L63.1154 68.2463C62.5475 67.6783 62.5475 66.7383 63.1154 66.1704C63.6833 65.6025 64.6233 65.6025 65.1912 66.1704L66.1313 67.1104L69.2646 64.2121C69.8521 63.6637 70.7921 63.7029 71.3404 64.2904C71.8888 64.8779 71.8496 65.7983 71.2621 66.3662Z" fill="white"/>
<path d="M69.1667 49.2695H37.8333C36.7563 49.2695 35.875 50.1508 35.875 51.2279V63.2912C35.875 69.1662 38.8125 73.0829 45.6667 73.0829H55.3213C56.6725 73.0829 57.6125 71.7708 57.1817 70.4979C56.79 69.362 56.4571 68.1087 56.4571 67.2079C56.4571 61.2741 61.2942 56.437 67.2279 56.437C67.7958 56.437 68.3638 56.4762 68.9121 56.5741C70.0871 56.7504 71.1446 55.8299 71.1446 54.6549V51.2474C71.125 50.1508 70.2438 49.2695 69.1667 49.2695ZM48.0363 65.6608C47.6642 66.0133 47.155 66.2287 46.6458 66.2287C46.1367 66.2287 45.6275 66.0133 45.2554 65.6608C44.9029 65.2887 44.6875 64.7795 44.6875 64.2704C44.6875 63.7612 44.9029 63.252 45.2554 62.8799C45.4513 62.7037 45.6471 62.5666 45.9017 62.4687C46.6263 62.1554 47.4879 62.3316 48.0363 62.8799C48.3888 63.252 48.6042 63.7612 48.6042 64.2704C48.6042 64.7795 48.3888 65.2887 48.0363 65.6608ZM48.0363 58.8066C47.9383 58.8849 47.8404 58.9633 47.7425 59.0416C47.625 59.1199 47.5075 59.1787 47.39 59.2179C47.2725 59.2766 47.155 59.3158 47.0375 59.3354C46.9004 59.3549 46.7633 59.3745 46.6458 59.3745C46.1367 59.3745 45.6275 59.1591 45.2554 58.8066C44.9029 58.4345 44.6875 57.9254 44.6875 57.4162C44.6875 56.907 44.9029 56.3979 45.2554 56.0258C45.7058 55.5754 46.3912 55.3599 47.0375 55.497C47.155 55.5166 47.2725 55.5558 47.39 55.6145C47.5075 55.6537 47.625 55.7124 47.7425 55.7908C47.8404 55.8691 47.9383 55.9474 48.0363 56.0258C48.3888 56.3979 48.6042 56.907 48.6042 57.4162C48.6042 57.9254 48.3888 58.4345 48.0363 58.8066ZM54.8904 58.8066C54.5183 59.1591 54.0092 59.3745 53.5 59.3745C52.9908 59.3745 52.4817 59.1591 52.1096 58.8066C51.7571 58.4345 51.5417 57.9254 51.5417 57.4162C51.5417 56.907 51.7571 56.3979 52.1096 56.0258C52.8538 55.3012 54.1658 55.3012 54.8904 56.0258C55.2429 56.3979 55.4583 56.907 55.4583 57.4162C55.4583 57.9254 55.2429 58.4345 54.8904 58.8066Z" fill="white"/>
</svg>
