<svg width="28" height="28" viewBox="0 0 28 28" fill="none" xmlns="http://www.w3.org/2000/svg">
    <g clip-path="url(#clip0_50_34970)">
        <path
            d="M22.0733 7.01037C21.84 6.32203 21.1867 5.83203 20.4167 5.83203H7.58333C6.81333 5.83203 6.17167 6.32203 5.92667 7.01037L3.5 13.9987V23.332C3.5 23.9737 4.025 24.4987 4.66667 24.4987H5.83333C6.475 24.4987 7 23.9737 7 23.332V22.1654H21V23.332C21 23.9737 21.525 24.4987 22.1667 24.4987H23.3333C23.975 24.4987 24.5 23.9737 24.5 23.332V13.9987L22.0733 7.01037ZM7.58333 18.6654C6.615 18.6654 5.83333 17.8837 5.83333 16.9154C5.83333 15.947 6.615 15.1654 7.58333 15.1654C8.55167 15.1654 9.33333 15.947 9.33333 16.9154C9.33333 17.8837 8.55167 18.6654 7.58333 18.6654ZM20.4167 18.6654C19.4483 18.6654 18.6667 17.8837 18.6667 16.9154C18.6667 15.947 19.4483 15.1654 20.4167 15.1654C21.385 15.1654 22.1667 15.947 22.1667 16.9154C22.1667 17.8837 21.385 18.6654 20.4167 18.6654ZM5.83333 12.832L7.58333 7.58203H20.4167L22.1667 12.832H5.83333Z"
            fill="#5E5E5E" />
    </g>
    <defs>
        <clipPath id="clip0_50_34970">
            <rect width="28" height="28" fill="white" />
        </clipPath>
    </defs>
</svg>