<svg width="24" height="24" viewBox="0 0 24 24" fill="none" xmlns="http://www.w3.org/2000/svg">
<g clip-path="url(#clip0_90_2051)">
<path d="M23.5078 12.2245C23.5078 11.2413 23.4295 10.5237 23.2598 9.77963H12.2295V14.2176H18.7041C18.5736 15.3205 17.8687 16.9815 16.3022 18.0976L16.2802 18.2461L19.7678 20.9963L20.0095 21.0209C22.2285 18.9347 23.5078 15.8653 23.5078 12.2245Z" fill="#4285F4"/>
<path d="M12.2294 23.9176C15.4014 23.9176 18.0643 22.8545 20.0094 21.0209L16.3021 18.0976C15.3101 18.8018 13.9786 19.2934 12.2294 19.2934C9.12268 19.2934 6.48586 17.2074 5.5459 14.324L5.40813 14.3359L1.78168 17.1927L1.73425 17.3269C3.66618 21.2334 7.6345 23.9176 12.2294 23.9176Z" fill="#34A853"/>
<path d="M5.54609 14.324C5.29808 13.5799 5.15454 12.7825 5.15454 11.9588C5.15454 11.1349 5.29808 10.3377 5.53304 9.59357L5.52647 9.4351L1.85458 6.53238L1.73444 6.59055C0.938206 8.21165 0.481323 10.0321 0.481323 11.9588C0.481323 13.8854 0.938206 15.7058 1.73444 17.3269L5.54609 14.324Z" fill="#FBBC05"/>
<path d="M12.2294 4.62405C14.4355 4.62405 15.9235 5.59403 16.7721 6.40462L20.0877 3.1093C18.0514 1.18261 15.4014 1.52588e-05 12.2294 1.52588e-05C7.63449 1.52588e-05 3.66617 2.68408 1.73425 6.59058L5.53285 9.5936C6.48585 6.71021 9.12267 4.62405 12.2294 4.62405Z" fill="#EB4335"/>
</g>
<defs>
<clipPath id="clip0_90_2051">
<rect width="23.04" height="24" fill="white" transform="translate(0.47998)"/>
</clipPath>
</defs>
</svg>
