<svg width="24" height="24" viewBox="0 0 24 24" fill="none" xmlns="http://www.w3.org/2000/svg">
<path d="M16.83 15.6402C17.5 15.2002 18.38 15.6802 18.38 16.4802V17.7702C18.38 19.0402 17.39 20.4002 16.2 20.8002L13.01 21.8602C12.45 22.0502 11.54 22.0502 10.99 21.8602L7.8 20.8002C6.6 20.4002 5.62 19.0402 5.62 17.7702V16.4702C5.62 15.6802 6.5 15.2002 7.16 15.6302L9.22 16.9702C10.01 17.5002 11.01 17.7602 12.01 17.7602C13.01 17.7602 14.01 17.5002 14.8 16.9702L16.83 15.6402Z" fill="#5B20B6"/>
<path d="M19.9795 6.45859L13.9895 2.52859C12.9095 1.81859 11.1295 1.81859 10.0495 2.52859L4.02953 6.45859C2.09953 7.70859 2.09953 10.5386 4.02953 11.7986L5.62953 12.8386L10.0495 15.7186C11.1295 16.4286 12.9095 16.4286 13.9895 15.7186L18.3795 12.8386L19.7495 11.9386V14.9986C19.7495 15.4086 20.0895 15.7486 20.4995 15.7486C20.9095 15.7486 21.2495 15.4086 21.2495 14.9986V10.0786C21.6495 8.78859 21.2395 7.28859 19.9795 6.45859Z" fill="#5B20B6"/>
</svg>
