<svg width="30" height="30" viewBox="0 0 30 30" fill="none" xmlns="http://www.w3.org/2000/svg">
    <path
        d="M22.9688 29.0625H7.03125C6.16131 29.0615 5.32729 28.7155 4.71215 28.1003C4.09701 27.4852 3.75099 26.6512 3.75 25.7812V4.21875C3.75099 3.34881 4.09701 2.51479 4.71215 1.89965C5.32729 1.28451 6.16131 0.938493 7.03125 0.9375H22.9688C23.8387 0.938493 24.6727 1.28451 25.2878 1.89965C25.903 2.51479 26.249 3.34881 26.25 4.21875V25.7812C26.249 26.6512 25.903 27.4852 25.2878 28.1003C24.6727 28.7155 23.8387 29.0615 22.9688 29.0625ZM7.03125 1.875C6.40988 1.87574 5.81417 2.12291 5.37479 2.56229C4.93541 3.00167 4.68824 3.59738 4.6875 4.21875V25.7812C4.68824 26.4026 4.93541 26.9983 5.37479 27.4377C5.81417 27.8771 6.40988 28.1243 7.03125 28.125H22.9688C23.5901 28.1243 24.1858 27.8771 24.6252 27.4377C25.0646 26.9983 25.3118 26.4026 25.3125 25.7812V4.21875C25.3118 3.59738 25.0646 3.00167 24.6252 2.56229C24.1858 2.12291 23.5901 1.87574 22.9688 1.875H7.03125Z"
        fill="black" />
    <path
        d="M16.4062 27.1875H13.5938C13.2208 27.1875 12.8631 27.0393 12.5994 26.7756C12.3357 26.5119 12.1875 26.1542 12.1875 25.7812V23.9062C12.1875 23.5333 12.3357 23.1756 12.5994 22.9119C12.8631 22.6482 13.2208 22.5 13.5938 22.5H16.4062C16.7792 22.5 17.1369 22.6482 17.4006 22.9119C17.6643 23.1756 17.8125 23.5333 17.8125 23.9062V25.7812C17.8125 26.1542 17.6643 26.5119 17.4006 26.7756C17.1369 27.0393 16.7792 27.1875 16.4062 27.1875ZM13.5938 23.4375C13.4694 23.4375 13.3502 23.4869 13.2623 23.5748C13.1744 23.6627 13.125 23.7819 13.125 23.9062V25.7812C13.125 25.9056 13.1744 26.0248 13.2623 26.1127C13.3502 26.2006 13.4694 26.25 13.5938 26.25H16.4062C16.5306 26.25 16.6498 26.2006 16.7377 26.1127C16.8256 26.0248 16.875 25.9056 16.875 25.7812V23.9062C16.875 23.7819 16.8256 23.6627 16.7377 23.5748C16.6498 23.4869 16.5306 23.4375 16.4062 23.4375H13.5938Z"
        fill="black" />
    <path
        d="M9.84375 27.1875H7.03125C6.65829 27.1875 6.3006 27.0393 6.03688 26.7756C5.77316 26.5119 5.625 26.1542 5.625 25.7812V23.9062C5.625 23.5333 5.77316 23.1756 6.03688 22.9119C6.3006 22.6482 6.65829 22.5 7.03125 22.5H9.84375C10.2167 22.5 10.5744 22.6482 10.8381 22.9119C11.1018 23.1756 11.25 23.5333 11.25 23.9062V25.7812C11.25 26.1542 11.1018 26.5119 10.8381 26.7756C10.5744 27.0393 10.2167 27.1875 9.84375 27.1875ZM7.03125 23.4375C6.90693 23.4375 6.7877 23.4869 6.69979 23.5748C6.61189 23.6627 6.5625 23.7819 6.5625 23.9062V25.7812C6.5625 25.9056 6.61189 26.0248 6.69979 26.1127C6.7877 26.2006 6.90693 26.25 7.03125 26.25H9.84375C9.96807 26.25 10.0873 26.2006 10.1752 26.1127C10.2631 26.0248 10.3125 25.9056 10.3125 25.7812V23.9062C10.3125 23.7819 10.2631 23.6627 10.1752 23.5748C10.0873 23.4869 9.96807 23.4375 9.84375 23.4375H7.03125Z"
        fill="black" />
    <path
        d="M22.9688 27.1875H20.1562C19.7833 27.1875 19.4256 27.0393 19.1619 26.7756C18.8982 26.5119 18.75 26.1542 18.75 25.7812V18.2812C18.75 17.9083 18.8982 17.5506 19.1619 17.2869C19.4256 17.0232 19.7833 16.875 20.1562 16.875H22.9688C23.3417 16.875 23.6994 17.0232 23.9631 17.2869C24.2268 17.5506 24.375 17.9083 24.375 18.2812V25.7812C24.375 26.1542 24.2268 26.5119 23.9631 26.7756C23.6994 27.0393 23.3417 27.1875 22.9688 27.1875ZM20.1562 17.8125C20.0319 17.8125 19.9127 17.8619 19.8248 17.9498C19.7369 18.0377 19.6875 18.1569 19.6875 18.2812V25.7812C19.6875 25.9056 19.7369 26.0248 19.8248 26.1127C19.9127 26.2006 20.0319 26.25 20.1562 26.25H22.9688C23.0931 26.25 23.2123 26.2006 23.3002 26.1127C23.3881 26.0248 23.4375 25.9056 23.4375 25.7812V18.2812C23.4375 18.1569 23.3881 18.0377 23.3002 17.9498C23.2123 17.8619 23.0931 17.8125 22.9688 17.8125H20.1562Z"
        fill="black" />
    <path
        d="M16.4062 21.5625H13.5938C13.2208 21.5625 12.8631 21.4143 12.5994 21.1506C12.3357 20.8869 12.1875 20.5292 12.1875 20.1562V18.2812C12.1875 17.9083 12.3357 17.5506 12.5994 17.2869C12.8631 17.0232 13.2208 16.875 13.5938 16.875H16.4062C16.7792 16.875 17.1369 17.0232 17.4006 17.2869C17.6643 17.5506 17.8125 17.9083 17.8125 18.2812V20.1562C17.8125 20.5292 17.6643 20.8869 17.4006 21.1506C17.1369 21.4143 16.7792 21.5625 16.4062 21.5625ZM13.5938 17.8125C13.4694 17.8125 13.3502 17.8619 13.2623 17.9498C13.1744 18.0377 13.125 18.1569 13.125 18.2812V20.1562C13.125 20.2806 13.1744 20.3998 13.2623 20.4877C13.3502 20.5756 13.4694 20.625 13.5938 20.625H16.4062C16.5306 20.625 16.6498 20.5756 16.7377 20.4877C16.8256 20.3998 16.875 20.2806 16.875 20.1562V18.2812C16.875 18.1569 16.8256 18.0377 16.7377 17.9498C16.6498 17.8619 16.5306 17.8125 16.4062 17.8125H13.5938Z"
        fill="black" />
    <path
        d="M9.84375 21.5625H7.03125C6.65829 21.5625 6.3006 21.4143 6.03688 21.1506C5.77316 20.8869 5.625 20.5292 5.625 20.1562V18.2812C5.625 17.9083 5.77316 17.5506 6.03688 17.2869C6.3006 17.0232 6.65829 16.875 7.03125 16.875H9.84375C10.2167 16.875 10.5744 17.0232 10.8381 17.2869C11.1018 17.5506 11.25 17.9083 11.25 18.2812V20.1562C11.25 20.5292 11.1018 20.8869 10.8381 21.1506C10.5744 21.4143 10.2167 21.5625 9.84375 21.5625ZM7.03125 17.8125C6.90693 17.8125 6.7877 17.8619 6.69979 17.9498C6.61189 18.0377 6.5625 18.1569 6.5625 18.2812V20.1562C6.5625 20.2806 6.61189 20.3998 6.69979 20.4877C6.7877 20.5756 6.90693 20.625 7.03125 20.625H9.84375C9.96807 20.625 10.0873 20.5756 10.1752 20.4877C10.2631 20.3998 10.3125 20.2806 10.3125 20.1562V18.2812C10.3125 18.1569 10.2631 18.0377 10.1752 17.9498C10.0873 17.8619 9.96807 17.8125 9.84375 17.8125H7.03125Z"
        fill="black" />
    <path
        d="M16.4062 15.9375H13.5938C13.2208 15.9375 12.8631 15.7893 12.5994 15.5256C12.3357 15.2619 12.1875 14.9042 12.1875 14.5312V12.6562C12.1875 12.2833 12.3357 11.9256 12.5994 11.6619C12.8631 11.3982 13.2208 11.25 13.5938 11.25H16.4062C16.7792 11.25 17.1369 11.3982 17.4006 11.6619C17.6643 11.9256 17.8125 12.2833 17.8125 12.6562V14.5312C17.8125 14.9042 17.6643 15.2619 17.4006 15.5256C17.1369 15.7893 16.7792 15.9375 16.4062 15.9375ZM13.5938 12.1875C13.4694 12.1875 13.3502 12.2369 13.2623 12.3248C13.1744 12.4127 13.125 12.5319 13.125 12.6562V14.5312C13.125 14.6556 13.1744 14.7748 13.2623 14.8627C13.3502 14.9506 13.4694 15 13.5938 15H16.4062C16.5306 15 16.6498 14.9506 16.7377 14.8627C16.8256 14.7748 16.875 14.6556 16.875 14.5312V12.6562C16.875 12.5319 16.8256 12.4127 16.7377 12.3248C16.6498 12.2369 16.5306 12.1875 16.4062 12.1875H13.5938Z"
        fill="black" />
    <path
        d="M9.84375 15.9375H7.03125C6.65829 15.9375 6.3006 15.7893 6.03688 15.5256C5.77316 15.2619 5.625 14.9042 5.625 14.5312V12.6562C5.625 12.2833 5.77316 11.9256 6.03688 11.6619C6.3006 11.3982 6.65829 11.25 7.03125 11.25H9.84375C10.2167 11.25 10.5744 11.3982 10.8381 11.6619C11.1018 11.9256 11.25 12.2833 11.25 12.6562V14.5312C11.25 14.9042 11.1018 15.2619 10.8381 15.5256C10.5744 15.7893 10.2167 15.9375 9.84375 15.9375ZM7.03125 12.1875C6.90693 12.1875 6.7877 12.2369 6.69979 12.3248C6.61189 12.4127 6.5625 12.5319 6.5625 12.6562V14.5312C6.5625 14.6556 6.61189 14.7748 6.69979 14.8627C6.7877 14.9506 6.90693 15 7.03125 15H9.84375C9.96807 15 10.0873 14.9506 10.1752 14.8627C10.2631 14.7748 10.3125 14.6556 10.3125 14.5312V12.6562C10.3125 12.5319 10.2631 12.4127 10.1752 12.3248C10.0873 12.2369 9.96807 12.1875 9.84375 12.1875H7.03125Z"
        fill="black" />
    <path
        d="M22.9688 15.9375H20.1562C19.7833 15.9375 19.4256 15.7893 19.1619 15.5256C18.8982 15.2619 18.75 14.9042 18.75 14.5312V12.6562C18.75 12.2833 18.8982 11.9256 19.1619 11.6619C19.4256 11.3982 19.7833 11.25 20.1562 11.25H22.9688C23.3417 11.25 23.6994 11.3982 23.9631 11.6619C24.2268 11.9256 24.375 12.2833 24.375 12.6562V14.5312C24.375 14.9042 24.2268 15.2619 23.9631 15.5256C23.6994 15.7893 23.3417 15.9375 22.9688 15.9375ZM20.1562 12.1875C20.0319 12.1875 19.9127 12.2369 19.8248 12.3248C19.7369 12.4127 19.6875 12.5319 19.6875 12.6562V14.5312C19.6875 14.6556 19.7369 14.7748 19.8248 14.8627C19.9127 14.9506 20.0319 15 20.1562 15H22.9688C23.0931 15 23.2123 14.9506 23.3002 14.8627C23.3881 14.7748 23.4375 14.6556 23.4375 14.5312V12.6562C23.4375 12.5319 23.3881 12.4127 23.3002 12.3248C23.2123 12.2369 23.0931 12.1875 22.9688 12.1875H20.1562Z"
        fill="black" />
    <path
        d="M22.9688 9.375H7.03125C6.65829 9.375 6.3006 9.22684 6.03688 8.96312C5.77316 8.6994 5.625 8.34171 5.625 7.96875V4.21875C5.625 3.84579 5.77316 3.4881 6.03688 3.22438C6.3006 2.96066 6.65829 2.8125 7.03125 2.8125H22.9688C23.3417 2.8125 23.6994 2.96066 23.9631 3.22438C24.2268 3.4881 24.375 3.84579 24.375 4.21875V7.96875C24.375 8.34171 24.2268 8.6994 23.9631 8.96312C23.6994 9.22684 23.3417 9.375 22.9688 9.375ZM7.03125 3.75C6.90693 3.75 6.7877 3.79939 6.69979 3.88729C6.61189 3.9752 6.5625 4.09443 6.5625 4.21875V7.96875C6.5625 8.09307 6.61189 8.2123 6.69979 8.30021C6.7877 8.38811 6.90693 8.4375 7.03125 8.4375H22.9688C23.0931 8.4375 23.2123 8.38811 23.3002 8.30021C23.3881 8.2123 23.4375 8.09307 23.4375 7.96875V4.21875C23.4375 4.09443 23.3881 3.9752 23.3002 3.88729C23.2123 3.79939 23.0931 3.75 22.9688 3.75H7.03125Z"
        fill="black" />
    <path
        d="M21.5625 7.96875C21.1895 7.96875 20.8319 7.82059 20.5681 7.55687C20.3044 7.29315 20.1562 6.93546 20.1562 6.5625V5.625C20.1562 5.25204 20.3044 4.89435 20.5681 4.63063C20.8319 4.36691 21.1895 4.21875 21.5625 4.21875C21.9355 4.21875 22.2931 4.36691 22.5569 4.63063C22.8206 4.89435 22.9688 5.25204 22.9688 5.625V6.5625C22.9688 6.93546 22.8206 7.29315 22.5569 7.55687C22.2931 7.82059 21.9355 7.96875 21.5625 7.96875ZM21.5625 5.15625C21.4382 5.15625 21.319 5.20564 21.231 5.29354C21.1431 5.38145 21.0938 5.50068 21.0938 5.625V6.5625C21.0938 6.68682 21.1431 6.80605 21.231 6.89396C21.319 6.98186 21.4382 7.03125 21.5625 7.03125C21.6868 7.03125 21.806 6.98186 21.894 6.89396C21.9819 6.80605 22.0312 6.68682 22.0312 6.5625V5.625C22.0312 5.50068 21.9819 5.38145 21.894 5.29354C21.806 5.20564 21.6868 5.15625 21.5625 5.15625Z"
        fill="black" />
</svg>