<svg width="20" height="20" viewBox="0 0 20 20" fill="none" xmlns="http://www.w3.org/2000/svg">
    <g clip-path="url(#clip0_95_676)">
        <path
            d="M14.6813 4.9735L15.8921 3.76266L17.0705 4.941L15.8596 6.15183C17.0561 7.64947 17.6337 9.54839 17.4739 11.4586C17.314 13.3688 16.4288 15.1453 15.0001 16.4233C13.5713 17.7012 11.7074 18.3836 9.7913 18.3302C7.87515 18.2769 6.05215 17.4919 4.6967 16.1364C3.34125 14.781 2.55625 12.958 2.50291 11.0418C2.44957 9.12569 3.13193 7.26184 4.40987 5.83309C5.68782 4.40433 7.46432 3.51912 9.37453 3.35926C11.2847 3.1994 13.1837 3.77702 14.6813 4.9735ZM9.16631 6.66683V11.6668H10.833V6.66683H9.16631ZM6.66631 0.833496H13.333V2.50016H6.66631V0.833496Z"
            fill="#1A0C47" />
    </g>
    <defs>
        <clipPath id="clip0_95_676">
            <rect width="20" height="20" fill="white" />
        </clipPath>
    </defs>
</svg>